<svg width="210" height="160" viewBox="0 0 210 160" fill="none" xmlns="http://www.w3.org/2000/svg">
<rect width="210" height="160" rx="12" fill="#F5F5F5"/>
<path d="M153.001 79.9678L140.894 73.0669L116.734 86.9229V100.778L128.787 107.734L153.001 93.8775V79.9678Z" fill="#39CCFB" stroke="#F0F0F0" stroke-miterlimit="10"/>
<path d="M128.974 38.9331L116.734 45.8041V73.1821L128.974 79.9998L141.268 73.1821V45.8041L128.974 38.9331Z" fill="#39CCFB" stroke="#F0F0F0" stroke-miterlimit="10"/>
<path d="M81.5332 38.8479V52.4907L105 66.1333L116.733 59.3386V45.6957L93.2666 32L81.5332 38.8479Z" fill="#39CCFB" stroke="#F0F0F0" stroke-miterlimit="10"/>
<path d="M57 79.9782L69.285 86.9333L93.8 73.0773V59.2214L81.515 52.2666L57 66.1223V79.9782Z" fill="#39CCFB" stroke="#F0F0F0" stroke-miterlimit="10"/>
<path d="M80.9734 121.067L93.2677 114.204V86.8624L80.9734 80L68.7344 86.8624V114.204L80.9734 121.067Z" fill="#39CCFB" stroke="#F0F0F0" stroke-miterlimit="10"/>
<path d="M129.532 121.195V107.531L105.373 93.8667L93.2656 100.672V114.336L117.479 128L129.532 121.195Z" fill="#39CCFB" stroke="#F0F0F0" stroke-miterlimit="10"/>
</svg>
