<svg width="210" height="160" viewBox="0 0 210 160" fill="none" xmlns="http://www.w3.org/2000/svg">
<rect width="210" height="160" rx="12" fill="#F5F5F5"/>
<path d="M105.463 73.143L81.4629 59.4287V86.8573L105.463 100.572V73.143Z" fill="#8B1FF8" stroke="#F0F0F0" stroke-miterlimit="10"/>
<path d="M105 45.7144L129 59.4286L105 73.1429L81 59.4286L105 45.7144Z" fill="#8B1FF8" stroke="#F0F0F0" stroke-miterlimit="10"/>
<path d="M104.986 73.143L128.986 59.4287V86.8573L104.986 100.572V73.143Z" fill="#8B1FF8" stroke="#F0F0F0" stroke-miterlimit="10"/>
<path d="M105.463 100.571L81.4629 86.8569V114.286L105.463 128V100.571Z" fill="#8B1FF8" stroke="#F0F0F0" stroke-miterlimit="10"/>
<path d="M104.986 100.571L128.986 86.8569V114.286L104.986 128V100.571Z" fill="#8B1FF8" stroke="#F0F0F0" stroke-miterlimit="10"/>
<path d="M129 32L153 45.7143L129 59.4286L105 45.7143L129 32Z" fill="#8B1FF8" stroke="#F0F0F0" stroke-miterlimit="10"/>
<path d="M81.4611 59.4286L57.4609 45.7144V73.1429L81.4611 86.8572V59.4286Z" fill="#8B1FF8" stroke="#F0F0F0" stroke-miterlimit="10"/>
<path d="M81 32L105 45.7143L81 59.4286L57 45.7143L81 32Z" fill="#8B1FF8" stroke="#F0F0F0" stroke-miterlimit="10"/>
<path d="M128.986 59.4286L152.987 45.7144V73.1429L128.986 86.8572V59.4286Z" fill="#8B1FF8" stroke="#F0F0F0" stroke-miterlimit="10"/>
</svg>
