<svg width="62" height="24" viewBox="0 0 62 24" fill="none" xmlns="http://www.w3.org/2000/svg">
<path d="M0.656 23V0.599998H5.84V23H0.656ZM15.796 23V4.824H8.628V0.599998H28.148V4.824H20.98V23H15.796ZM30.9373 23V0.599998H36.1213V23H30.9373ZM52.1573 23.384C50.4293 23.384 48.8186 23.1067 47.3253 22.552C45.8533 21.976 44.5733 21.1653 43.4852 20.12C42.3973 19.0747 41.5439 17.848 40.9253 16.44C40.3279 15.032 40.0293 13.4853 40.0293 11.8C40.0293 10.1147 40.3279 8.568 40.9253 7.16C41.5439 5.752 42.3973 4.52533 43.4852 3.48C44.5946 2.43467 45.8853 1.63467 47.3573 1.08C48.8293 0.503999 50.4399 0.216 52.1893 0.216C54.1306 0.216 55.8799 0.557333 57.4373 1.24C59.0159 1.90133 60.3386 2.88267 61.4053 4.184L58.0773 7.256C57.3093 6.38133 56.4559 5.73067 55.5173 5.304C54.5786 4.856 53.5546 4.632 52.4453 4.632C51.3999 4.632 50.4399 4.80267 49.5653 5.144C48.6906 5.48533 47.9333 5.976 47.2933 6.616C46.6533 7.256 46.1519 8.01333 45.7893 8.888C45.4479 9.76267 45.2773 10.7333 45.2773 11.8C45.2773 12.8667 45.4479 13.8373 45.7893 14.712C46.1519 15.5867 46.6533 16.344 47.2933 16.984C47.9333 17.624 48.6906 18.1147 49.5653 18.456C50.4399 18.7973 51.3999 18.968 52.4453 18.968C53.5546 18.968 54.5786 18.7547 55.5173 18.328C56.4559 17.88 57.3093 17.208 58.0773 16.312L61.4053 19.384C60.3386 20.6853 59.0159 21.6773 57.4373 22.36C55.8799 23.0427 54.1199 23.384 52.1573 23.384Z" fill="#184AFB"/>
</svg>
